<svg viewBox="0 0 120 120" fill="none" xmlns="http://www.w3.org/2000/svg">
<path d="M32.0519 54.1191C32.0807 53.8287 32.1575 48.3759 31.8071 44.4279C31.5335 41.3343 30.7991 38.3391 29.8271 35.3943C28.9775 32.8239 28.0439 30.2943 26.8607 27.8511C25.9319 25.9359 24.8231 24.0903 24.6191 21.9687C24.5015 20.7423 24.5159 19.4103 25.1615 18.2943C26.0135 16.8183 28.2647 16.6047 29.3399 17.0391C29.7239 17.1951 30.0215 17.5935 30.3287 17.9103C31.7183 19.3455 32.4215 21.1936 33.2663 22.9432C35.2079 26.9608 36.7367 31.144 37.9319 35.4376C38.5127 37.528 38.9039 39.6711 39.3839 41.7903C39.4559 42.1071 39.5231 42.4287 39.6335 42.7311C39.7535 43.0647 40.0247 43.2256 40.2791 43.1752C40.5743 43.1176 40.747 42.8488 40.7278 42.472C40.723 42.3904 40.7111 42.3112 40.6943 42.2296C39.6167 36.7144 38.4311 31.2975 36.3575 26.0655C35.7959 24.6495 35.1599 23.2623 34.5119 21.8823C34.2455 21.3159 33.8495 20.8119 33.535 20.2671C33.1487 19.5999 32.7599 18.9303 32.4167 18.2415C31.9871 17.3847 31.8455 16.4751 32.3447 15.7335C32.9783 14.7927 33.8422 14.0631 35.0902 14.0415C35.2942 14.0391 35.4983 14.0199 35.6999 14.0415C36.3695 14.1135 37.0247 14.2024 37.3943 14.9032C37.6319 15.3496 38.0038 15.7287 38.2078 16.1847C39.739 19.6407 41.3063 23.0847 42.7367 26.5815C44.4935 30.8775 45.7606 35.3392 46.7926 39.8632C46.891 40.2976 46.9631 40.7416 47.0519 41.1784C47.0759 41.2984 47.0998 41.4183 47.1478 41.5287C47.2774 41.8335 47.5415 41.9992 47.8126 41.9608C48.1199 41.9176 48.3551 41.6776 48.3359 41.3152C48.3095 40.7896 48.1127 39.58 48.0023 39.0664C46.2671 32.2552 44.2703 26.2696 41.3111 19.912C40.7471 18.808 40.195 17.6944 39.5926 16.612C38.7718 15.1384 39.3023 13.9047 40.2191 13.1703C41.2103 12.3783 42.7967 12.1071 43.9511 13.2303C44.3543 13.6239 44.7143 14.0776 45.0119 14.5552C45.3431 15.088 45.6311 15.6591 45.8543 16.2447C46.5695 18.1263 51.0503 28.0047 52.9055 35.0223C53.3663 36.3663 53.7359 37.7439 54.1535 39.1047C54.2303 39.3567 54.3095 39.6135 54.4223 39.8487C54.5999 40.2231 54.9335 40.3743 55.2695 40.2687C55.5935 40.1679 55.7903 39.8319 55.6943 39.4311C55.4735 38.5023 55.2239 37.5807 54.9863 36.6543C54.3383 34.1271 53.6615 31.6959 52.6943 29.2791C51.9623 27.4479 51.3143 25.5855 50.5799 23.7543C49.9679 22.2279 49.2719 20.7327 48.6335 19.2159C48.1751 18.1287 47.5247 17.0223 47.0543 15.9423C46.8047 15.3687 46.8095 14.7904 46.8983 14.2096C47.0567 13.192 47.9687 12.5968 49.0631 12.6952C50.3039 12.8056 51.2111 13.3647 51.7487 14.5047C52.2599 15.5895 52.7855 16.6671 53.3063 17.7447C53.4575 18.0567 53.6063 18.3687 53.7647 18.6735C56.5583 24.0543 58.7207 29.68 60.3167 35.5264C61.1759 38.6704 61.7399 41.8744 62.0975 45.112C62.4335 48.1432 62.7575 51.1768 63.0263 54.2152C63.1727 55.8544 63.2039 57.5056 63.2663 59.152C63.3599 61.6144 63.3575 64.0768 63.0647 66.5271C62.9159 67.7752 62.6519 69.0112 62.4047 70.2472C62.0783 71.86 61.7687 73.4799 61.3607 75.0735C60.3503 79.0167 59.1479 82.8976 57.3407 86.5648C56.8199 87.6231 56.3183 88.6912 55.8407 89.7664C54.8423 92.0056 53.3879 93.9328 51.7751 95.7496C48.4271 99.5248 44.6639 102.844 40.5695 105.786C39.6647 106.437 38.6567 106.941 37.6967 107.512C37.3751 107.704 37.0583 107.687 36.7055 107.574C35.2991 107.126 34.0031 106.456 32.7767 105.645C30.0119 103.814 27.6911 101.543 25.8335 98.7855C23.3591 95.1111 21.4535 91.1799 20.3159 86.8911C19.9439 85.4847 19.9391 85.4776 20.7311 84.2608C20.9015 83.9968 21.1583 83.7903 21.3791 83.5599C22.7327 82.1487 24.1222 80.7543 25.1302 79.0743C27.2302 75.5799 27.8111 71.8864 26.3735 67.9696C25.7687 66.3232 25.0247 64.7439 24.2255 63.1887C22.9703 60.7479 21.7487 58.288 20.4623 55.864C19.7495 54.5176 18.9479 53.2167 18.1655 51.9087C17.3111 50.4783 16.4183 49.0671 15.5663 47.6343C15.1607 46.9503 14.8967 46.204 14.7071 45.4264C14.4959 44.5576 14.7455 43.8471 15.4007 43.2903C16.6535 42.2271 18.0959 41.8431 19.7207 42.1599C21.7199 42.5511 23.3759 43.5903 24.9023 44.8791C25.7471 45.5919 26.467 46.42 27.1102 47.3152C27.9862 48.5392 28.8335 49.7823 29.7239 50.9991C30.2519 51.7191 31.8311 53.9272 32.0567 54.124L32.0519 54.1191Z" fill="#E3B5FA"/>
<path d="M82.4903 104.013C80.6591 104.133 79.6272 104.282 78.2688 102.834C76.008 100.425 74.076 97.7512 72.1464 95.08C69.7656 91.7848 67.2815 88.5904 64.3775 85.7368C61.4711 82.8808 57.5664 81.34 54.6192 78.5224C51.9312 75.9496 49.7904 72.9808 48.1584 69.6376C46.9512 67.1632 45.9839 64.6024 45.2399 61.9528C44.3015 58.6096 43.3367 55.2712 42.4199 51.9232C42.0095 50.4256 41.3304 48.4072 41.6856 46.852C42.0744 45.1528 43.9655 44.908 45.4199 45.0904C46.5623 45.232 47.556 45.7144 48.4344 46.4536C49.7448 47.5624 50.7287 48.9136 51.4823 50.452C52.5983 52.7344 53.7191 55.0168 54.8879 57.2728C55.7879 59.0104 56.8632 60.6424 58.1664 62.1112C59.256 63.34 61.0416 62.6392 61.4688 61.1776C61.7784 60.1192 61.4784 58.9912 61.2144 57.9208C58.6272 47.3752 59.82 35.9416 64.5264 26.1568C65.7504 23.6128 67.2096 21.1696 69.0119 18.9976C69.8279 18.0136 70.764 17.0536 71.9688 16.6264C73.1736 16.1992 74.7095 16.4632 75.4103 17.5336C76.2671 18.8464 75.5496 20.5768 74.8464 21.9784C71.8872 27.88 69.3192 34.0936 68.5416 40.6504C68.472 41.2288 68.6112 42.0424 69.1919 42.0448C69.6551 42.0472 69.8927 41.5048 70.0127 41.0584C71.8223 34.372 74.0471 27.7528 77.4023 21.6952C78.6119 19.5088 80.2584 17.2 82.7232 16.804C83.5656 16.6696 84.4847 16.7968 85.152 17.3296C86.4479 18.364 86.2896 20.3896 85.6919 21.9376C85.0607 23.572 84.0936 25.048 83.196 26.5528C80.3424 31.336 78.1584 36.5176 76.7208 41.9008C76.5696 42.472 76.4063 43.2208 76.6247 43.7968C76.8335 44.3464 77.6207 44.9992 77.9447 44.0992C78.1031 43.66 78.2399 43.2112 78.3599 42.76C78.9455 40.5376 79.5887 38.3296 80.4599 36.2008C81.3167 34.1128 82.2192 32.044 83.1264 29.9776C83.4024 29.3464 83.7336 28.7344 84.0864 28.1416C85.044 26.5336 85.9536 24.892 87.0192 23.3584C87.78 22.2616 89.3472 21.4048 90.6864 21.3976C92.796 21.3856 93.156 23.4376 92.7768 25.1656C92.5344 26.2672 92.1432 27.2872 91.5144 28.2424C88.1328 33.3832 85.4112 38.8456 83.6568 44.764C83.5824 45.0184 83.4887 45.2656 83.4095 45.5176C83.2607 45.9976 83.3927 46.3504 83.7671 46.4752C84.1055 46.5904 84.4128 46.408 84.6119 45.9688C85.1231 44.8384 85.6296 43.708 86.1408 42.5776C88.188 38.0536 89.4456 35.1112 92.9544 29.3488C93.336 28.7248 93.8639 28.1416 94.4303 27.6688C95.3207 26.9248 96.5664 27.184 97.2888 28.0648C98.052 28.9936 98.1047 30.0424 97.9127 31.12C97.7783 31.8736 97.5191 32.6128 97.2671 33.34C96.2591 36.2392 95.2943 39.1552 94.1879 42.0184C91.7519 48.3232 91.0271 54.7888 92.4695 61.4176C93.5375 66.3208 95.292 71.2672 97.2336 75.88C97.9512 77.5816 98.8056 79.228 99.6144 80.8912C100.55 82.8184 101.873 84.8152 102.53 86.848C103.186 88.8736 101.273 91.5088 100.195 93.1264C98.8727 95.1136 97.2624 96.9112 95.4456 98.4592C91.824 101.546 87.2783 103.715 82.4879 104.03L82.4903 104.013Z" fill="#F96C00"/>
<path d="M9.13432 39.2488C8.49112 39.1984 7.98711 38.9704 7.68951 38.416C7.37751 37.8376 7.46391 37.2544 7.86711 36.76C8.13351 36.4336 8.45749 36.1336 8.81029 35.908C9.39109 35.536 10.0007 35.2072 10.6223 34.9048C12.8159 33.8368 15.0191 32.7928 17.2151 31.7296C17.6159 31.5352 17.9999 31.3048 18.3935 31.0888C18.5543 31.0024 18.7079 30.8968 18.8759 30.8296C19.4567 30.5992 20.0951 30.7696 20.4719 31.2424C20.8463 31.7104 20.8655 32.3824 20.5055 32.8912C20.3903 33.0544 20.2415 33.2008 20.0855 33.3304C19.8527 33.5272 19.6151 33.7216 19.3583 33.8824C16.4639 35.6992 13.5167 37.4224 10.3991 38.836C9.99832 39.0184 9.55912 39.112 9.13672 39.2488H9.13432Z" fill="#051F13"/>
<path d="M10.0967 19.768C12.5039 19.8304 14.9063 20.1088 17.2991 20.3896C17.9639 20.4664 18.6551 20.5552 19.2191 20.9152C19.7831 21.2752 20.1767 21.9976 19.9415 22.6264C19.6127 23.5048 18.4319 23.6032 17.4959 23.5528C14.3087 23.38 11.1215 23.2048 7.9319 23.032C7.3655 23.0008 6.77753 22.9648 6.27833 22.696C4.95353 21.9856 5.53668 20.4808 6.71028 20.0224C7.26468 19.8064 7.8695 19.7752 8.4647 19.7632C9.0095 19.7512 9.55191 19.756 10.0967 19.768Z" fill="#051F13"/>
<path d="M108.734 14.7424C109.531 14.7472 110.021 15.0232 110.299 15.616C110.563 16.1776 110.45 16.8328 109.942 17.2864C109.567 17.62 109.135 17.908 108.686 18.1384C106.519 19.2568 104.338 20.3464 102.166 21.4528C101.659 21.7096 101.162 21.988 100.68 22.2832C100.001 22.7008 99.2712 22.6384 98.8032 22.0912C98.3568 21.568 98.3592 20.8168 98.88 20.26C99.2376 19.8784 99.6408 19.5064 100.09 19.2472C102.482 17.8648 104.892 16.5136 107.306 15.1672C107.786 14.9008 108.312 14.728 108.732 14.7376L108.734 14.7424Z" fill="#051F13"/>
<path d="M104.191 30.7624C104.302 30.7912 104.525 30.8248 104.729 30.9112C106.92 31.8328 109.114 32.7496 111.29 33.7C111.883 33.9592 112.447 34.2952 112.99 34.648C113.527 34.9984 113.921 35.4928 114.149 36.1048C114.305 36.5224 114.324 36.9424 114.115 37.3456C113.818 37.924 113.148 38.1376 112.418 37.8616C111.946 37.6816 111.492 37.4464 111.029 37.24C109.339 36.4936 107.63 35.7832 105.962 34.9888C105.086 34.5712 104.273 34.0192 103.454 33.4936C103.207 33.3352 102.982 33.0904 102.838 32.836C102.307 31.9 103.006 30.7528 104.194 30.7624H104.191Z" fill="#051F13"/>
<path d="M40.6344 40.6886C40.356 39.2798 39.2232 34.3358 38.4672 31.5398C37.6728 28.6022 36.132 24.3038 34.7208 21.7646C33.372 19.3382 32.7024 18.251 32.6256 18.1238C32.424 17.7015 32.0544 17.4854 31.6032 17.5334C31.1736 17.579 30.7799 17.8647 30.7079 18.1838C30.5879 18.7191 31.6104 20.7518 32.2272 21.5126C32.7264 22.127 34.6632 27.1959 35.5944 29.6319C35.8632 30.3327 36.0719 30.8822 36.1847 31.1654C36.7343 32.5382 38.4024 38.3918 38.736 40.1126C38.7936 40.415 38.8464 40.7102 38.8944 40.9886C39.0936 42.1454 39.2375 42.983 39.7103 43.3022C39.8351 43.3862 39.9767 43.4295 40.1303 43.4295C40.1951 43.4295 40.2624 43.4222 40.3296 43.4078C40.6128 43.3454 40.8071 43.2278 40.9199 43.0454C41.1287 42.707 41.0112 42.2414 40.8456 41.5958C40.7784 41.3294 40.7016 41.027 40.6344 40.6886Z" fill="#051F13"/>
<path d="M45.3551 28.6863C44.5799 26.6055 42.6408 21.9063 41.8056 20.2623C41.5632 19.7871 41.3375 19.3119 41.1191 18.8511C40.6151 17.7879 40.1808 16.8711 39.7631 16.4415C39.336 16.0023 38.8319 15.9903 38.5487 16.1655C38.2847 16.3287 38.1815 16.6383 38.2919 16.9551C38.6375 17.9607 39.8039 20.5815 40.9319 23.1159C41.8751 25.2375 42.7679 27.2415 43.0583 28.0311C43.6943 29.7639 45.6743 36.2199 45.9887 37.5111C46.0583 37.7967 46.1231 38.0559 46.1807 38.2959C46.3847 39.1167 46.5311 39.7095 46.6559 40.3647C46.6775 40.4799 46.6967 40.5951 46.7159 40.7079C46.8383 41.4351 46.9655 42.1887 47.8127 42.1983C47.8223 42.1983 47.8295 42.1983 47.8391 42.1983C48.0719 42.1983 48.3287 42.1671 48.4943 41.9583C48.7775 41.6079 48.6839 40.9479 48.2399 39.0087C47.6279 36.3327 46.1663 30.8511 45.3575 28.6839L45.3551 28.6863Z" fill="#051F13"/>
<path d="M55.7327 38.0175C55.6943 37.8855 55.6607 37.7727 55.6415 37.6887C55.0343 35.0943 53.2775 29.9727 52.4711 27.8055L52.2719 27.2727C51.4127 24.9639 49.8167 20.6655 49.0703 19.2015C48.8231 18.7167 48.6071 18.2583 48.4175 17.8551C47.9807 16.9311 47.6375 16.2015 47.2223 15.7743C46.8023 15.3423 46.2455 15.3255 45.9119 15.5295C45.6311 15.7023 45.5183 16.0143 45.6239 16.3215C45.9863 17.3823 47.1456 20.2623 48.1656 22.8063C48.9264 24.6999 49.6463 26.4903 49.9175 27.2295C50.5583 28.9791 52.7927 35.3703 53.0999 36.6327C53.2079 37.0719 53.2919 37.4031 53.3639 37.6791C53.4959 38.1951 53.5823 38.5359 53.6879 39.0855C53.8679 40.0359 54.3383 40.5183 55.0823 40.5183C55.1495 40.5183 55.2191 40.5135 55.2911 40.5063C55.5383 40.4799 55.7327 40.3647 55.8599 40.1775C56.2103 39.6543 55.9223 38.6679 55.7303 38.0151L55.7327 38.0175Z" fill="#051F13"/>
<path d="M74.8487 21.9711C72.5519 25.9983 71.0543 30.0399 70.2239 32.6847C69.3935 35.3295 69.0934 36.9591 68.6998 39.4863C68.3038 42.0135 68.6902 42.0351 69.1942 42.0375C69.931 42.0399 70.0318 40.9095 70.507 39.2727C70.9822 37.6359 72.2974 33.2799 73.1494 31.0815C74.0014 28.8831 75.1534 26.1207 75.727 24.9519C76.3006 23.7831 77.1815 22.5975 76.8767 21.9711C76.5719 21.3447 75.4967 20.8359 74.8487 21.9711Z" fill="#051F13"/>
<path d="M84.3239 24.6687C84.3239 24.6687 81.3623 29.1759 80.0495 32.2311C78.7367 35.2863 78.0023 36.7047 77.4527 38.4543C76.9031 40.2039 76.4855 41.6607 76.5287 42.9471C76.5719 44.2335 76.9103 44.5527 77.5223 44.6775C78.1343 44.8023 78.3359 42.8895 79.0127 40.4007C79.6895 37.9119 81.2687 34.2327 82.0391 32.4663C82.8095 30.6999 84.0095 28.2735 84.6095 27.2511C85.2095 26.2287 86.6711 24.7311 86.1287 24.0207C85.5863 23.3103 84.8615 23.7951 84.3263 24.6687H84.3239Z" fill="#051F13"/>
<path d="M91.2407 28.612C88.5047 32.3536 86.5631 36.2032 85.4423 38.7376C84.3215 41.272 83.8391 42.8584 83.1623 45.3256C82.4855 47.7928 82.8647 47.8576 83.3663 47.9176C84.0983 48.004 84.3263 46.8904 84.9815 45.3184C85.6367 43.744 87.4343 39.5656 88.5287 37.4752C89.6231 35.3848 91.0775 32.7712 91.7783 31.6744C92.4791 30.5776 93.4895 29.5 93.2567 28.8424C93.0239 28.1848 92.0111 27.5584 91.2407 28.6144V28.612Z" fill="#051F13"/>
</svg>
